<?xml version="1.0" encoding="utf-8"?>
<!-- Generator: Adobe Illustrator 15.1.0, SVG Export Plug-In  -->
<!DOCTYPE svg PUBLIC "-//W3C//DTD SVG 1.1//EN" "http://www.w3.org/Graphics/SVG/1.1/DTD/svg11.dtd" [
	<!ENTITY ns_flows "http://ns.adobe.com/Flows/1.0/">
]>
<svg version="1.1"
	 xmlns="http://www.w3.org/2000/svg" xmlns:xlink="http://www.w3.org/1999/xlink" xmlns:a="http://ns.adobe.com/AdobeSVGViewerExtensions/3.0/"
	 x="0px" y="0px" viewBox="0 0 403 109" enable-background="new 0 0 403 109" xml:space="preserve">
<defs>
</defs>
<path fill="#010101" d="M0.146,65.846c0-6.52,0.949-11.849,2.847-15.987c1.898-4.136,4.33-7.373,7.3-9.709
	c2.968-2.336,6.326-3.917,10.074-4.745c3.746-0.825,7.519-1.24,11.315-1.24c3.698,0,7.446,0.415,11.242,1.24
	c3.796,0.828,7.227,2.409,10.293,4.745s5.548,5.573,7.446,9.709c1.898,4.139,2.847,9.468,2.847,15.987l0.584,36.792
	c-5.938,0-10.512-1.264-13.724-3.796c-3.212-2.53-4.818-6.666-4.818-12.41l0.146-20.586c0-4.088-0.415-7.373-1.241-9.855
	c-0.828-2.481-1.923-4.428-3.285-5.84c-1.364-1.409-2.872-2.358-4.526-2.847c-1.656-0.486-3.31-0.73-4.964-0.73
	c-1.656,0-3.285,0.244-4.891,0.73c-1.606,0.488-3.066,1.438-4.38,2.847c-1.314,1.412-2.386,3.358-3.212,5.84
	c-0.828,2.482-1.241,5.768-1.241,9.855v22.63c0.096,2.92,0.169,5.307,0.219,7.154c0.048,1.85,0.121,3.31,0.219,4.38
	c0.096,1.168,0.194,2.044,0.292,2.628c-6.036,0-10.658-1.264-13.87-3.796C1.606,96.312,0,92.176,0,86.432L0.146,65.846z"/>
<path fill="#010101" d="M151.255,67.452c0-6.521,0.949-11.85,2.847-15.987c1.898-4.136,4.355-7.373,7.373-9.709
	c3.017-2.336,6.399-3.917,10.147-4.745c3.746-0.826,7.469-1.241,11.169-1.241h7.154c0.485,2.044,0.584,3.942,0.292,5.694
	c-0.196,1.46-0.854,2.872-1.972,4.233c-1.12,1.364-2.944,2.19-5.475,2.482c-1.656,0.196-3.285,0.562-4.891,1.095
	c-1.606,0.536-3.044,1.46-4.308,2.774c-1.266,1.313-2.313,3.189-3.139,5.621c-0.828,2.434-1.241,5.693-1.241,9.782v21.17
	c0,2.92,0.023,5.28,0.073,7.081c0.048,1.802,0.121,3.236,0.219,4.307c0.096,1.168,0.194,2.044,0.292,2.628
	c-5.938,0-10.512-1.241-13.724-3.723c-3.212-2.482-4.818-6.644-4.818-12.483V67.452z"/>
<path fill="#010101" d="M215.932,14.162c-2.044,3.408-4.868,5.109-8.469,5.109c-1.558,0-3.018-0.34-4.38-1.021
	c-1.46-0.876-2.58-2.02-3.357-3.432c-0.78-1.409-1.168-2.942-1.168-4.599c0-1.848,0.438-3.504,1.313-4.964
	c0.876-1.654,2.092-2.943,3.65-3.869C205.077,0.463,206.684,0,208.339,0c1.46,0,2.87,0.39,4.234,1.168
	c1.556,0.78,2.724,1.897,3.504,3.357c0.778,1.46,1.168,3.019,1.168,4.672C217.245,10.949,216.808,12.605,215.932,14.162z
	 M227.319,89.498c-0.488,0.682-1.314,1.24-2.482,1.679c-1.168,0.438-2.336,0.562-3.504,0.365c-1.168-0.194-2.189-0.804-3.065-1.825
	c-0.876-1.022-1.314-2.701-1.314-5.037V49.786c0-2.921,0.023-5.279,0.073-7.081c0.048-1.8,0.121-3.235,0.219-4.308
	c0.096-1.168,0.194-2.092,0.292-2.773c-6.036,0-10.61,1.266-13.724,3.796c-3.116,2.532-4.672,6.716-4.672,12.556l-0.146,34.456
	c0,2.435,0.365,4.771,1.095,7.008c0.73,2.24,1.849,4.187,3.358,5.84c1.508,1.656,3.381,2.945,5.621,3.869
	c2.238,0.924,4.866,1.241,7.884,0.949c3.114-0.196,5.402-1.095,6.862-2.701c1.46-1.605,2.432-3.285,2.92-5.037
	C227.319,94.315,227.514,92.03,227.319,89.498z"/>
<path fill="#010101" d="M252.868,99.279c-0.876,1.656-2.095,2.92-3.65,3.797c-1.558,0.876-3.164,1.313-4.818,1.313
	c-1.656,0-3.065-0.39-4.233-1.168c-3.116-1.752-4.672-4.428-4.672-8.03c0-1.653,0.438-3.308,1.313-4.964
	c0.972-1.653,2.238-2.92,3.796-3.796c1.556-0.876,3.162-1.313,4.818-1.313c1.654,0,3.066,0.39,4.234,1.168
	c1.46,0.779,2.577,1.897,3.357,3.357c0.778,1.46,1.168,3.019,1.168,4.672C254.182,96.067,253.744,97.724,252.868,99.279z"/>
<path fill="#010101" d="M266.736,65.846c0-6.52,0.948-11.849,2.847-15.987c1.898-4.136,4.33-7.373,7.3-9.709
	c2.968-2.336,6.326-3.917,10.074-4.745c3.746-0.825,7.519-1.24,11.315-1.24c3.697,0,7.445,0.415,11.241,1.24
	c3.796,0.828,7.228,2.409,10.293,4.745c3.066,2.336,5.549,5.573,7.446,9.709c1.898,4.139,2.847,9.468,2.847,15.987l0.584,36.792
	c-5.938,0-10.512-1.264-13.724-3.796c-3.212-2.53-4.818-6.666-4.818-12.41l0.146-20.586c0-4.088-0.415-7.373-1.241-9.855
	c-0.828-2.481-1.923-4.428-3.285-5.84c-1.364-1.409-2.872-2.358-4.525-2.847c-1.656-0.486-3.311-0.73-4.964-0.73
	c-1.656,0-3.285,0.244-4.892,0.73c-1.605,0.488-3.065,1.438-4.38,2.847c-1.314,1.412-2.386,3.358-3.212,5.84
	c-0.828,2.482-1.241,5.768-1.241,9.855v22.63c0.096,2.92,0.169,5.307,0.219,7.154c0.048,1.85,0.121,3.31,0.22,4.38
	c0.096,1.168,0.193,2.044,0.292,2.628c-6.036,0-10.658-1.264-13.87-3.796c-3.212-2.53-4.818-6.666-4.818-12.41L266.736,65.846z"/>
<path fill="#010101" d="M402.663,72.562c0,6.522-0.973,11.826-2.92,15.914s-4.453,7.3-7.518,9.636
	c-3.066,2.336-6.498,3.942-10.293,4.818c-3.797,0.876-7.545,1.314-11.242,1.314c-3.701,0-7.447-0.438-11.243-1.314
	s-7.227-2.482-10.293-4.818c-3.065-2.336-5.548-5.548-7.446-9.636c-1.897-4.088-2.847-9.392-2.847-15.914l0.146-20.586
	c0-5.84,1.581-10.001,4.745-12.482c3.161-2.482,7.761-3.724,13.797-3.724c-0.099,0.584-0.196,1.46-0.292,2.628
	c-0.099,1.072-0.172,2.532-0.22,4.38c-0.05,1.851-0.072,4.234-0.072,7.154l0.146,22.63c0,4.088,0.388,7.373,1.168,9.855
	c0.778,2.481,1.825,4.405,3.14,5.767c1.313,1.364,2.773,2.288,4.38,2.774c1.605,0.488,3.234,0.729,4.891,0.729
	c1.654,0,3.285-0.241,4.891-0.729c1.605-0.486,3.066-1.41,4.381-2.774c1.313-1.361,2.357-3.285,3.139-5.767
	c0.777-2.482,1.168-5.768,1.168-9.855l0.145-20.586c0-5.84,1.607-10.001,4.818-12.482c3.213-2.482,7.834-3.724,13.871-3.724
	c-0.1,0.584-0.197,1.46-0.293,2.628c-0.098,1.072-0.17,2.532-0.219,4.38c-0.051,1.851-0.072,4.234-0.072,7.154L402.663,72.562z"/>
<path fill="#010101" d="M146.807,81.027L133.98,36.851c-1.848-6.364-8.506-10.025-14.869-8.178L74.936,41.498
	c-6.365,1.848-10.027,8.506-8.179,14.869l12.826,44.177c1.848,6.364,8.506,10.025,14.869,8.178l44.176-12.825
	C144.992,94.049,148.654,87.391,146.807,81.027z M135.614,88.442l-42.608,12.37c-2.5,0.726-5.141-0.729-5.867-3.232l-12.39-42.675
	c-0.728-2.504,0.724-5.146,3.224-5.872l42.609-12.37c2.5-0.726,5.139,0.729,5.866,3.233l12.39,42.674
	C139.564,85.073,138.115,87.717,135.614,88.442z"/>
<path fill="#010101" d="M134.719,70.692c2.156,3.87,0.762,8.759-3.113,10.913l-26.887,14.971c-3.877,2.158-8.762,0.766-10.919-3.102
	l-14.956-26.87c-2.156-3.869-0.762-8.758,3.113-10.913l26.887-14.971c3.875-2.157,8.764-0.765,10.918,3.103L134.719,70.692z"/>
</svg>
