<?xml version="1.0" encoding="utf-8"?>
<!-- Generator: Adobe Illustrator 15.1.0, SVG Export Plug-In . SVG Version: 6.00 Build 0)  -->
<!DOCTYPE svg PUBLIC "-//W3C//DTD SVG 1.1//EN" "http://www.w3.org/Graphics/SVG/1.1/DTD/svg11.dtd">
<svg version="1.1" id="Layer_1" xmlns="http://www.w3.org/2000/svg" xmlns:xlink="http://www.w3.org/1999/xlink" x="0px" y="0px"
	 viewBox="0 313.236 612.156 165.833" enable-background="new 0 313.236 612.156 165.833"
	 xml:space="preserve">
<path fill="#010101" d="M0.222,413.23c0-9.901,1.441-17.994,4.324-24.278c2.882-6.281,6.575-11.197,11.085-14.744
	c4.507-3.547,9.607-5.948,15.299-7.206c5.688-1.253,11.418-1.883,17.183-1.883c5.616,0,11.308,0.63,17.072,1.883
	c5.765,1.258,10.975,3.659,15.631,7.206s8.425,8.463,11.308,14.744c2.882,6.286,4.323,14.378,4.323,24.278l0.887,55.872
	c-9.018,0-15.964-1.919-20.842-5.765c-4.877-3.842-7.316-10.123-7.316-18.846l0.222-31.262c0-6.208-0.63-11.197-1.885-14.966
	c-1.257-3.768-2.92-6.725-4.988-8.869c-2.072-2.14-4.362-3.581-6.874-4.323c-2.515-0.738-5.026-1.109-7.538-1.109
	c-2.515,0-4.989,0.371-7.428,1.109c-2.439,0.741-4.656,2.184-6.651,4.323c-1.996,2.145-3.624,5.1-4.878,8.869
	c-1.257,3.769-1.885,8.759-1.885,14.966v34.366c0.146,4.434,0.257,8.059,0.333,10.864c0.073,2.809,0.184,5.026,0.333,6.651
	c0.146,1.773,0.294,3.104,0.443,3.99c-9.167,0-16.186-1.919-21.063-5.765C2.439,459.496,0,453.215,0,444.492L0.222,413.23z"/>
<path fill="#010101" d="M229.697,415.669c0-9.902,1.441-17.995,4.324-24.278c2.882-6.281,6.613-11.197,11.197-14.744
	c4.582-3.547,9.717-5.949,15.409-7.206c5.689-1.254,11.343-1.884,16.961-1.884h10.864c0.736,3.104,0.887,5.986,0.443,8.647
	c-0.298,2.217-1.297,4.361-2.995,6.428c-1.701,2.071-4.471,3.326-8.314,3.769c-2.515,0.298-4.989,0.854-7.428,1.663
	c-2.439,0.814-4.623,2.217-6.542,4.212c-1.923,1.994-3.513,4.843-4.767,8.536c-1.257,3.696-1.884,8.646-1.884,14.855v32.148
	c0,4.435,0.035,8.019,0.111,10.753c0.073,2.737,0.184,4.915,0.333,6.541c0.146,1.773,0.294,3.104,0.443,3.991
	c-9.018,0-15.964-1.885-20.841-5.654c-4.878-3.769-7.317-10.09-7.317-18.956v-28.822H229.697z"/>
<path fill="#010101" d="M327.917,334.742c-3.104,5.175-7.393,7.759-12.861,7.759c-2.366,0-4.583-0.517-6.651-1.551
	c-2.218-1.33-3.918-3.067-5.098-5.212c-1.185-2.14-1.774-4.468-1.774-6.984c0-2.806,0.665-5.321,1.994-7.539
	c1.33-2.512,3.177-4.469,5.543-5.875c2.362-1.401,4.803-2.104,7.316-2.104c2.217,0,4.358,0.592,6.43,1.773
	c2.363,1.185,4.137,2.881,5.321,5.098c1.182,2.217,1.773,4.584,1.773,7.095C329.91,329.863,329.247,332.378,327.917,334.742z
	 M345.209,449.148c-0.741,1.035-1.995,1.883-3.77,2.55c-1.773,0.665-3.547,0.854-5.321,0.554c-1.773-0.294-3.324-1.221-4.654-2.771
	c-1.33-1.552-1.995-4.102-1.995-7.648v-52.991c0-4.436,0.035-8.017,0.11-10.753c0.073-2.733,0.185-4.913,0.333-6.542
	c0.146-1.774,0.295-3.177,0.443-4.211c-9.166,0-16.112,1.923-20.842,5.765c-4.731,3.845-7.095,10.199-7.095,19.068l-0.222,52.325
	c0,3.698,0.555,7.245,1.663,10.643c1.108,3.401,2.808,6.358,5.1,8.868c2.29,2.516,5.134,4.473,8.536,5.876
	c3.398,1.403,7.39,1.885,11.973,1.441c4.729-0.298,8.203-1.663,10.421-4.102c2.217-2.438,3.693-4.989,4.434-7.649
	C345.209,456.464,345.505,452.993,345.209,449.148z"/>
<path fill="#D5482A" d="M384.008,464.002c-1.33,2.515-3.182,4.435-5.543,5.766c-2.366,1.331-4.805,1.994-7.316,1.994
	c-2.515,0-4.654-0.592-6.429-1.773c-4.731-2.661-7.095-6.725-7.095-12.194c0-2.511,0.665-5.023,1.994-7.538
	c1.477-2.511,3.398-4.435,5.765-5.765c2.363-1.331,4.802-1.994,7.316-1.994c2.512,0,4.656,0.592,6.43,1.773
	c2.218,1.183,3.914,2.881,5.099,5.098c1.182,2.218,1.773,4.585,1.773,7.096C386.004,459.124,385.338,461.641,384.008,464.002z"/>
<path fill="#010101" d="M405.068,413.23c0-9.901,1.439-17.994,4.323-24.278c2.882-6.281,6.575-11.197,11.086-14.744
	c4.507-3.547,9.606-5.948,15.298-7.206c5.689-1.253,11.419-1.883,17.184-1.883c5.614,0,11.306,0.63,17.07,1.883
	c5.765,1.258,10.977,3.659,15.632,7.206s8.427,8.463,11.308,14.744c2.882,6.286,4.323,14.378,4.323,24.278l0.887,55.872
	c-9.018,0-15.964-1.919-20.842-5.765c-4.878-3.842-7.316-10.123-7.316-18.846l0.222-31.262c0-6.208-0.63-11.197-1.885-14.966
	c-1.257-3.768-2.92-6.725-4.988-8.869c-2.071-2.14-4.361-3.581-6.872-4.323c-2.515-0.738-5.028-1.109-7.538-1.109
	c-2.515,0-4.988,0.371-7.429,1.109c-2.438,0.741-4.655,2.184-6.651,4.323c-1.996,2.145-3.624,5.1-4.878,8.869
	c-1.258,3.769-1.885,8.759-1.885,14.966v34.366c0.146,4.434,0.257,8.059,0.332,10.864c0.073,2.809,0.185,5.026,0.335,6.651
	c0.146,1.773,0.293,3.104,0.443,3.99c-9.167,0-16.186-1.919-21.063-5.765c-4.878-3.842-7.316-10.123-7.316-18.846L405.068,413.23z"
	/>
<path fill="#010101" d="M611.488,423.429c0,9.905-1.478,17.96-4.435,24.168s-6.763,11.086-11.417,14.633
	c-4.656,3.548-9.867,5.986-15.631,7.316c-5.766,1.331-11.458,1.996-17.072,1.996c-5.62,0-11.309-0.665-17.073-1.996
	c-5.765-1.33-10.976-3.769-15.632-7.316c-4.654-3.547-8.425-8.425-11.308-14.633c-2.881-6.208-4.323-14.263-4.323-24.168
	l0.222-31.262c0-8.869,2.401-15.188,7.206-18.955c4.801-3.77,11.786-5.655,20.952-5.655c-0.15,0.887-0.298,2.217-0.443,3.991
	c-0.15,1.628-0.261,3.845-0.334,6.651c-0.076,2.811-0.109,6.43-0.109,10.864l0.222,34.366c0,6.208,0.589,11.197,1.773,14.966
	c1.182,3.769,2.771,6.69,4.769,8.759c1.994,2.071,4.211,3.474,6.651,4.212c2.438,0.741,4.911,1.107,7.428,1.107
	c2.512,0,4.988-0.366,7.428-1.107c2.438-0.738,4.656-2.141,6.653-4.212c1.993-2.067,3.579-4.989,4.767-8.759
	c1.18-3.769,1.773-8.759,1.773-14.966l0.221-31.262c0-8.869,2.44-15.188,7.316-18.955c4.879-3.77,11.896-5.655,21.064-5.655
	c-0.151,0.887-0.299,2.217-0.445,3.991c-0.148,1.628-0.258,3.845-0.332,6.651c-0.077,2.811-0.109,6.43-0.109,10.864L611.488,423.429
	z"/>
<path fill="#010101" d="M222.943,436.284l-19.479-67.086c-2.806-9.665-12.917-15.224-22.58-12.419l-67.084,19.476
	c-9.666,2.807-15.228,12.917-12.421,22.58l19.478,67.088c2.807,9.664,12.917,15.224,22.58,12.419l67.086-19.476
	C220.187,456.06,225.748,445.948,222.943,436.284z M205.945,447.545L141.24,466.33c-3.796,1.103-7.807-1.107-8.91-4.908
	l-18.815-64.807c-1.105-3.803,1.1-7.815,4.896-8.917l64.707-18.785c3.796-1.103,7.804,1.107,8.908,4.91l18.815,64.805
	C211.943,442.429,209.743,446.443,205.945,447.545z"/>
<path fill="#010101" d="M204.585,420.589c3.274,5.878,1.157,13.302-4.727,16.573l-40.831,22.735
	c-5.888,3.276-13.306,1.163-16.582-4.711l-22.712-40.806c-3.274-5.875-1.157-13.3,4.728-16.572l40.831-22.735
	c5.885-3.276,13.309-1.162,16.58,4.712L204.585,420.589z"/>
</svg>
